<?xml version="1.0" encoding="UTF-8" standalone="no"?>
<!DOCTYPE svg PUBLIC "-//W3C//DTD SVG 1.1//EN" "http://www.w3.org/Graphics/SVG/1.1/DTD/svg11.dtd">
<svg width="100%" height="100%" viewBox="0 0 1024 1024" version="1.1" xmlns="http://www.w3.org/2000/svg" xmlns:xlink="http://www.w3.org/1999/xlink" xml:space="preserve" xmlns:serif="http://www.serif.com/" style="fill-rule:evenodd;clip-rule:evenodd;stroke-linejoin:round;stroke-miterlimit:2;">
    <g transform="matrix(8.32164,0,0,8.32164,12.7525,11.4496)">
        <g id="icomoon-ignore">
        </g>
    </g>
    <g transform="matrix(8.32164,0,0,8.32164,12.7525,11.4496)">
        <path d="M10.328,110.464C10.124,110.464 9.916,110.432 9.712,110.368C8.66,110.028 8.084,108.9 8.424,107.848C10.468,101.54 12.884,95.428 15.644,89.544C8.772,76.892 9.336,63.624 17.296,51.096C33.888,25 79.148,7.444 107.036,9.736C107.984,9.816 108.752,10.552 108.856,11.492C108.968,12.436 108.396,13.328 107.492,13.628C69.436,26.04 39.004,52.228 21.324,87.04C54.028,82.344 68.668,63.432 82.84,45.112C90.744,34.904 98.204,25.26 108.52,17.968C109.424,17.328 110.668,17.552 111.304,18.448C111.944,19.356 111.724,20.596 110.828,21.236C101,28.18 93.716,37.592 86,47.564C70.952,67.008 55.4,87.112 19.224,91.352C16.556,97.056 14.22,102.968 12.236,109.088C11.956,109.924 11.172,110.464 10.328,110.464ZM95.4,13.804C69.016,16.056 34.452,31.564 20.676,53.236C13.992,63.752 13.052,74.428 17.856,85.016C34.308,52.736 61.456,27.696 95.4,13.804Z" style="fill:rgb(33,46,58);fill-rule:nonzero;"/>
    </g>
    <g transform="matrix(8.32164,0,0,8.32164,12.7525,11.4496)">
        <path d="M74.172,52.348C74.116,52.348 74.064,52.348 74.008,52.34C70.712,52.064 69.092,51.984 65.768,51.936C64.664,51.92 63.78,51.012 63.796,49.904C63.812,48.804 64.696,47.848 65.824,47.936C69.22,47.984 70.972,48.068 74.336,48.352C75.436,48.444 76.252,49.412 76.164,50.512C76.08,51.56 75.204,52.348 74.172,52.348Z" style="fill:rgb(33,46,58);fill-rule:nonzero;"/>
    </g>
    <g transform="matrix(8.32164,0,0,8.32164,12.7525,11.4496)">
        <path d="M51.916,65.308C50.928,65.308 50.068,64.568 49.936,63.56C49.796,62.472 50.568,61.468 51.664,61.32C58.416,60.448 61.864,60.248 68.452,60.304C69.552,60.316 70.444,61.22 70.432,62.324C70.42,63.416 69.528,64.304 68.432,64.304L68.412,64.304C61.984,64.228 58.788,64.436 52.176,65.292C52.088,65.3 52,65.308 51.916,65.308Z" style="fill:rgb(33,46,58);fill-rule:nonzero;"/>
    </g>
</svg>
