<svg width="1024px" height="1024px" xmlns="http://www.w3.org/2000/svg" xmlns:xlink="http://www.w3.org/1999/xlink">
<g style="">  <path d="M98.698398,930.691217 C97.000784,930.691217,95.269883,930.424924,93.572268,929.892339 C84.817902,927.062982,80.024638,917.676171,82.853996,908.921807 C99.863427,856.428901,119.968511,805.567037,142.936235,756.602501 C85.749923,651.317108,90.443329,540.905591,156.683584,436.652070 C294.756227,219.490547,671.393672,73.395837,903.467541,92.469034 C911.356456,93.134765,917.747475,99.259492,918.612926,107.081834 C919.544950,114.937462,914.784972,122.360365,907.262210,124.856857 C590.573879,228.145050,337.329737,446.072148,190.203139,735.765115 C462.354042,696.686692,584.182878,539.307839,702.117136,386.855380 C767.891377,301.908078,829.970816,221.654189,915.816854,160.972791 C923.339617,155.646942,933.691737,157.510989,938.984300,164.967178 C944.310149,172.523228,942.479388,182.842061,935.023199,188.167912 C853.238120,245.953378,792.623299,324.276663,728.413528,407.260043 C603.189486,569.066013,473.771340,736.364265,172.727686,771.648001 C150.525551,819.114635,131.086198,868.312173,114.576066,919.240608 C112.246007,926.197500,105.721841,930.691186,98.698377,930.691186 L98.698398,930.691217 Z M806.636970,126.321518 C587.078813,145.061852,299.449639,274.113847,184.810749,454.460421 C129.188907,541.970785,121.366565,630.812611,161.343725,718.922146 C298.251344,450.299616,524.167217,241.925743,806.636968,126.321534 L806.636970,126.321518 Z " style="fill: rgba(255, 255, 255, 1.000000); stroke-width: 0.000000px; stroke: rgba(0, 0, 0, 1.000000); " fill="#ffffff" stroke="#000000" stroke-width="0.000000" />
  <path d="M629.985158,447.070808 C629.519147,447.070808,629.086421,447.070808,628.620409,447.004235 C601.192284,444.707462,587.711228,444.041731,560.050098,443.642292 C550.863007,443.509146,543.506677,435.953097,543.639823,426.732719 C543.772970,417.578915,551.129299,409.623427,560.516110,410.355731 C588.776399,410.755170,603.355911,411.454188,631.349911,413.817534 C640.503715,414.583124,647.294173,422.638472,646.561868,431.792277 C645.862851,440.513355,638.573094,447.070808,629.985162,447.070808 Z " style="fill: rgba(255, 255, 255, 1.000000); stroke-width: 0.000000px; stroke: rgba(0, 0, 0, 1.000000); " fill="#ffffff" stroke="#000000" stroke-width="0.000000" />
  <path d="M444.778766,554.919255 C436.556985,554.919255,429.400374,548.761241,428.301918,540.373028 C427.136889,531.319083,433.561195,522.964157,442.681713,521.732554 C498.869425,514.476085,527.562439,512.811756,582.385406,513.277768 C591.539210,513.377628,598.962113,520.900390,598.862253,530.087481 C598.762394,539.174712,591.339491,546.564328,582.218973,546.564328 L582.052541,546.564328 C528.561039,545.931883,501.965080,547.662784,446.942393,554.786108 C446.210088,554.852681,445.477784,554.919254,444.778766,554.919254 Z " style="fill: rgba(255, 255, 255, 1.000000); stroke-width: 0.000000px; stroke: rgba(0, 0, 0, 1.000000); " fill="#ffffff" stroke="#000000" stroke-width="0.000000" />
</g></svg>